<?xml version="1.0" encoding="utf-8"?>
<!-- Generator: Adobe Illustrator 23.0.5, SVG Export Plug-In . SVG Version: 6.00 Build 0)  -->
<svg version="1.1" id="Layer_1" xmlns="http://www.w3.org/2000/svg" xmlns:xlink="http://www.w3.org/1999/xlink" x="0px" y="0px"
	 viewBox="0 0 595.28 316" style="enable-background:new 0 0 595.28 316;" xml:space="preserve">
<style type="text/css">
	.st0{fill:#FFFFFF;}
</style>
<path d="M35.1,228.34c-0.08-1.45-0.22-2.89-0.22-4.34c-0.05-56.31-0.09-112.62-0.12-168.93c0-1.67-0.04-3.34,0.08-5.01
	c0.88-12.25,9.13-18.84,20.82-15.01c8.18,2.68,15.75,7.48,23.26,11.9c25.3,14.88,50.46,30.01,75.66,45.06
	c1.04,0.62,2.06,1.28,3.04,1.99c9,6.47,9.94,16.94,1.87,24.52c-6.62,6.23-13.47,12.25-20.49,18.01
	c-9.65,7.92-11.84,14.31-5.57,26.98c18.96,38.35,37.84,76.75,56.74,115.13c0.71,1.44,1.32,2.92,1.29,4.82
	c-6.78-7.89-13.57-15.77-20.33-23.67c-21.39-24.98-42.94-49.83-64.06-75.04c-6.61-7.89-13.98-13.99-24.35-15.15
	c-5.8-0.65-11.73-0.12-18.07-0.12c20.85-19.1,41.73-38.23,63.19-57.89C108.9,100.43,90.38,89.49,71.25,78.2
	C59.4,128.61,47.68,178.48,35.96,228.34C35.68,228.34,35.39,228.34,35.1,228.34z"/>
<path d="M431.98,218.98c1.56-6.77,2.85-12.43,4.18-18.07c8.48-36.18,17.03-72.34,25.37-108.55c0.78-3.39,2.15-4.43,5.5-4.33
	c7.43,0.22,14.89,0.29,22.31-0.03c3.64-0.16,4.97,1.3,5.84,4.54c5.8,21.59,11.74,43.13,17.65,64.69c0.11,0.42,0.36,0.8,1.07,2.35
	c1.57-6.36,2.95-11.73,4.22-17.13c2.76-11.76,5.32-23.57,8.3-35.27c0.57-2.22,2.28-4.65,4.18-5.94
	c10.37-7.04,20.97-13.76,32.54-21.27c-1.45,6.17-2.63,11.2-3.81,16.23c-8.58,36.62-17.2,73.23-25.66,109.88
	c-0.93,4.03-2.47,5.83-6.92,5.52c-6.5-0.44-13.06-0.32-19.57-0.06c-3.75,0.15-5.53-0.88-6.6-4.78
	c-5.51-20.11-11.37-40.12-17.13-60.16c-0.54-1.87-1.22-3.7-2.19-6.63c-3.32,13.95-7.15,26.68-9.19,39.7
	c-1.67,10.63-6.49,17.73-15.72,22.95C448.22,207.23,440.77,213.01,431.98,218.98z"/>
<path d="M368.89,88.29c27.68,0,55.1,0,82.82,0c-1.91,8.47-3.61,16.74-5.78,24.88c-0.3,1.11-2.92,2.26-4.47,2.28
	c-18.81,0.15-37.63,0.1-56.44,0.1c-1.44,0-2.88,0-4.31,0c-0.11,0.3-0.21,0.61-0.32,0.91c2.31,1.83,4.45,3.96,6.98,5.4
	c3.66,2.09,4.51,4.83,3.25,8.63c-0.5,1.52-0.7,3.14-1.15,5.28c13.63,0,26.76,0,40.38,0c-2.2,9.31-4.26,18.05-6.38,27.02
	c-13.76,0-27.23,0-41.07,0c-1.59,7.07-3.14,13.92-4.82,21.4c17.39,0,34.15,0,51.77,0c-1.32,5.71-2.43,10.77-3.67,15.8
	c-2.83,11.44-2.86,11.44-14.74,11.42c-22-0.03-44-0.07-66-0.1c-1.64,0-3.28,0-5.32,0C349.45,169.97,359.16,129.16,368.89,88.29z"/>
<path d="M269.52,115.59c6.39-8.94,11.92-16.88,17.72-24.62c1.03-1.38,3.17-2.73,4.81-2.74c21.56-0.16,43.12-0.08,64.68-0.05
	c0.28,0,0.56,0.2,1.37,0.52c-1.89,7.95-3.26,16.17-5.95,23.93c-1.24,3.59-4.95,6.38-7.71,9.38c-18.46,20.12-36.97,40.2-55.45,60.3
	c-0.29,0.32-0.51,0.71-0.76,1.07c0.21,0.28,0.38,0.68,0.54,0.68c13.2,0.02,26.42,0.33,39.6-0.19c4.02-0.16,7.95-2.56,12.25-4.05
	c-2.86,7.35-5.73,14.87-8.7,22.36c-3.68,9.28-3.71,9.27-13.66,9.25c-23.23-0.04-46.46-0.07-69.69-0.1c-1.65,0-3.3,0-5.77,0
	c3.95-11.68,4.15-23.56,13.62-33.07c19.15-19.22,37.11-39.65,55.54-59.59c0.66-0.72,1.19-1.57,2.32-3.1
	C299.19,115.59,284.9,115.59,269.52,115.59z"/>
<path d="M277.47,88.49c-7.11,10.06-13.88,19.66-20.68,29.24c-10.34,14.57-21.28,28.75-30.79,43.84c-4.02,6.38-5.97,14.5-7.2,22.1
	c-1.43,8.8-5.45,14.65-12.91,19.32c-8.93,5.58-17.22,12.2-26.93,19.21c0.58-3.77,0.8-6.34,1.38-8.83
	c3.34-14.27,6.91-28.49,10.06-42.8c0.68-3.1,0.62-6.68-0.18-9.75c-5.08-19.58-10.65-39.04-15.62-58.65
	c-1.56-6.15-4.97-10.32-10-14.05c12.38,0,24.76-0.08,37.13,0.15c1.04,0.02,2.71,2.06,2.96,3.38c2.66,13.8,5.08,27.65,7.6,41.48
	c0.13,0.69,0.58,1.33,1.11,2.5c8.18-12.47,16.73-24.24,23.86-36.82c4.8-8.47,10.45-12.24,20.2-10.85
	c5.95,0.85,12.12,0.17,18.19,0.19C275.96,88.14,276.26,88.25,277.47,88.49z"/>
<path d="M243.99,254.7c-2.73,0-4.69,0-6.97,0c0-11.08,0-22.07,0-33.11c4.75-1.56,7.8-0.13,10.12,4.48
	c2.62,5.22,6.04,10.03,9.82,16.16c0-7.69,0-14.22,0-20.91c2.55,0,4.5,0,6.8,0c0,10.95,0,21.93,0,33.19c-4.08,0.83-7.23,0.56-9.5-4
	c-2.8-5.64-6.48-10.84-10.26-17.02C243.99,240.96,243.99,247.66,243.99,254.7z"/>
<path d="M519.18,221.29c2.91,0,4.84,0,7.31,0c0,5.73,0,11.3,0,16.87c0,5.42,0,10.84,0,16.1c-4.86,1.52-7.76,0.29-9.97-3.98
	c-2.84-5.5-6.38-10.64-9.97-16.53c0,7.14,0,13.79,0,20.73c-2.65,0-4.81,0-7.23,0c0-10.95,0-21.82,0-32.99
	c4.2-0.93,7.53-0.8,9.88,3.99c2.66,5.41,6.21,10.37,9.98,16.5C519.18,234.61,519.18,228.13,519.18,221.29z"/>
<path d="M487.05,238.31c-1.3,3.47-2.07,7.27-3.99,10.36c-5.54,8.9-16.87,9.08-23.15,0.69c-4.58-6.11-4.88-15.39-0.72-21.79
	c3.71-5.7,9.54-8.18,15.54-6.61c6.23,1.63,11.01,7.94,11.55,15.26c0.04,0.6,0.01,1.21,0.01,1.81
	C486.54,238.13,486.79,238.22,487.05,238.31z M478.89,237.91c-0.02-5.45-3.24-9.68-7.45-9.78c-4.43-0.11-7.69,4.11-7.67,9.93
	c0.01,5.65,3.05,9.66,7.36,9.73C475.59,247.87,478.91,243.64,478.89,237.91z"/>
<path d="M294.36,221.33c2.57,0,4.62,0,6.95,0c0,8.58,0.38,17.03-0.13,25.41c-0.35,5.67-4.79,8.54-11.4,8.68
	c-7.14,0.15-11.63-2.29-12.12-8.2c-0.7-8.51-0.18-17.12-0.18-25.87c1.95,0,4.14,0,6.82,0c0,5.78-0.02,11.34,0.01,16.9
	c0.01,1.66,0.05,3.33,0.24,4.97c0.33,2.92,1.81,4.87,4.98,4.7c3.14-0.17,4.47-2.19,4.54-5.17c0.11-5.29,0.2-10.59,0.29-15.88
	C294.39,225.1,294.36,223.32,294.36,221.33z"/>
<path d="M354.79,243.4c0,3.6,0,7.2,0,11.09c-2.36,0-4.39,0-6.68,0c0-10.88,0-21.75,0-33.57c4.79,0.31,9.83-0.02,14.52,1.09
	c6.64,1.56,8.4,12.53,3.11,17.32c-0.88,0.79-1.95,1.37-3.12,2.19c1.25,2.22,2.44,4.3,3.6,6.4c1.16,2.08,2.29,4.17,3.49,6.37
	c-7.67,1.16-7.67,1.16-10.7-4.85c-1.06-2.11-2.14-4.22-3.21-6.33C355.47,243.21,355.13,243.3,354.79,243.4z M355.12,237.02
	c3.76,0.3,6.37-0.64,6.2-4.67c-0.16-3.8-2.66-4.58-6.2-3.87C355.12,231.33,355.12,234.1,355.12,237.02z"/>
<path d="M328.83,229.46c0,8.29,0,16.58,0,25.09c-2.65,0-4.83,0-7.49,0c0-8.45,0-16.73,0-25.15c-2.21-0.25-3.97-0.45-5.99-0.68
	c0-2.46,0-4.78,0-7.36c6.53,0,12.97,0,19.62,0c0,2.32,0,4.4,0,7.14C333.18,228.77,331.23,229.08,328.83,229.46z"/>
<path d="M422.45,221.46c0,2.47,0,4.7,0,7.21c-1.91,0.21-3.68,0.41-5.92,0.65c0,8.25,0,16.51,0,25.12c-2.66,0-4.85,0-7.66,0
	c0-8.23,0-16.63,0-25.07c-2.38-0.25-4.15-0.44-6.12-0.65c0-2.45,0-4.68,0-7.26C409.1,221.46,415.53,221.46,422.45,221.46z"/>
<path d="M382.77,221.27c2.39,0,4.47,0,6.88,0c0,11.07,0,22,0,33.23c-2.21,0-4.4,0-6.88,0C382.77,243.59,382.77,232.65,382.77,221.27
	z"/>
<path d="M436.46,221.35c2.36,0,4.54,0,7,0c0,11.12,0,22.05,0,33.21c-2.39,0-4.58,0-7,0C436.46,243.46,436.46,232.52,436.46,221.35z"
	/>
<path class="st0" d="M478.89,237.91c0.02,5.73-3.3,9.95-7.76,9.88c-4.31-0.07-7.34-4.08-7.36-9.73c-0.02-5.82,3.24-10.03,7.67-9.93
	C475.66,228.24,478.88,232.47,478.89,237.91z"/>
<path class="st0" d="M355.12,237.02c0-2.92,0-5.68,0-8.54c3.54-0.71,6.04,0.07,6.2,3.87C361.49,236.37,358.88,237.31,355.12,237.02z
	"/>
</svg>
